
<svg width="76px" height="74px" viewBox="0 0 76 74" version="1.1" xmlns="http://www.w3.org/2000/svg" xmlns:xlink="http://www.w3.org/1999/xlink">
    <!-- Generator: Sketch 43.2 (39069) - http://www.bohemiancoding.com/sketch -->
    <desc>Created with Sketch.</desc>
    <defs></defs>
    <g id="Page-1" stroke="none" stroke-width="1" fill="none" fill-rule="evenodd">
        <g id="我的" transform="translate(-861.000000, -1773.000000)" fill-rule="nonzero" fill="#5677FC">
            <g id="buttom" transform="translate(0.000000, 1751.000000)">
                <g id="Group" transform="translate(861.000000, 22.000000)">
                    <g id="account">
                        <path d="M58.9,21.837854 C58.9,9.7907225 49.1174217,0.0245928634 37.05,0.0245928634 C24.9825783,0.0245928634 15.2,9.7907225 15.2,21.837854 C15.2,33.8849853 24.9825783,43.651115 37.05,43.651115 C49.1174217,43.651115 58.9,33.8849853 58.9,21.837854 Z M19,21.837854 C19,11.8858758 27.0812604,3.81820353 37.05,3.81820353 C47.0187396,3.81820353 55.1,11.8858758 55.1,21.837854 C55.1,31.7898321 47.0187396,39.8575044 37.05,39.8575044 C27.0812604,39.8575044 19,31.7898321 19,21.837854 Z" id="Shape"></path>
                        <path d="M0,72.1031947 L0,74 L1.9,74 L36.1,74 L74.1,74 L76,74 L76,72.1031947 C76,55.0730186 58.4169044,39.8575044 38,39.8575044 C36.7715346,39.8575044 35.5499712,39.9069452 34.3380868,40.0051952 C33.2921888,40.0899883 36.015064,41.0051689 36.1,42.0493082 C37.2095729,41.9593529 36.8741926,43.651115 38,43.651115 C56.4293205,43.651115 72.2,57.2982567 72.2,72.1031947 L74.1,70.2063894 L36.1,70.2063894 L1.9,70.2063894 L3.8,72.1031947 C3.8,62.0299597 10.1690008,52.8214905 20.4297165,47.6934121 C21.3680428,47.2244572 21.7479035,46.0849094 21.2781587,45.1481607 C20.8084141,44.2114118 19.6669471,43.83219 18.7286206,44.3011448 C7.24238534,50.0417108 0,60.5129423 0,72.1031947 Z" id="Shape"></path>
                    </g>
                </g>
            </g>
        </g>
    </g>
</svg>