
<svg width="75px" height="76px" viewBox="0 0 75 76" version="1.1" xmlns="http://www.w3.org/2000/svg" xmlns:xlink="http://www.w3.org/1999/xlink">
    <!-- Generator: Sketch 43.2 (39069) - http://www.bohemiancoding.com/sketch -->
    <desc>Created with Sketch.</desc>
    <defs></defs>
    <g id="Page-1" stroke="none" stroke-width="1" fill="none" fill-rule="evenodd">
        <g id="充值记录-&gt;销售记录" transform="translate(-158.000000, -1774.000000)" fill-rule="nonzero" fill="#A2A2A2">
            <g id="buttom" transform="translate(0.000000, 1751.000000)">
                <g id="Group-Copy-3" transform="translate(124.000000, 23.000000)">
                    <g id="supplier-features" transform="translate(34.000000, 0.000000)">
                        <path d="M33.6891383,41.1742573 C22.3363715,41.1742573 13.1001266,31.9398954 13.1001266,20.5871286 C13.1001266,9.2343619 22.3363715,0 33.6891383,0 C45.041905,0 54.2762669,9.23624497 54.2762669,20.5890117 C54.2762669,31.9417784 45.041905,41.1742573 33.6891383,41.1742573 Z M33.6891383,3.77546809 C24.4189989,3.77546809 16.8774777,11.3169892 16.8774777,20.5871286 C16.8774777,29.857268 24.4189989,37.3969061 33.6891383,37.3969061 C42.9592777,37.3969061 50.4989157,29.855385 50.4989157,20.5871286 C50.5007988,11.3169892 42.9592777,3.77546809 33.6891383,3.77546809 Z" id="Shape"></path>
                        <path d="M1.92436444,68.1147173 C1.7887865,68.1147173 1.65320864,68.0996531 1.5157477,68.0695247 C0.497030405,67.8454445 -0.145081688,66.8361423 0.0789984699,65.817425 C2.08818776,56.7299391 7.46234534,48.8419411 15.2128824,43.6071275 C16.0771915,43.0271553 17.2522,43.2531185 17.8340552,44.1155446 C18.4177934,44.9798538 18.1899472,46.1529793 17.3256381,46.7386005 C10.3810364,51.4273365 5.56613759,58.4943349 3.76784733,66.6327754 C3.57201256,67.5159149 2.79055661,68.1147173 1.92436444,68.1147173 Z" id="Shape"></path>
                        <path d="M44.5259558,68.1166003 L1.92813043,68.1166003 C0.884933736,68.1166003 0.0394548865,67.2711214 0.0394548865,66.2279248 C0.0394548865,65.1847282 0.88493381,64.3392492 1.92813043,64.3392492 L44.5240727,64.3392492 C45.5672694,64.3392492 46.4127483,65.1847282 46.4127483,66.2279248 C46.4127483,67.2711214 45.5691524,68.1166003 44.5259558,68.1166003 Z" id="Shape"></path>
                        <path d="M62.6858633,75.8144126 C61.6445497,75.8144126 60.8028368,74.9726998 60.8028368,73.9313862 L60.8028368,59.7955062 C60.8028368,59.28144 61.0137358,58.7862041 61.388458,58.430312 L70.7753451,49.5028835 C71.048384,49.2298446 71.2084413,48.8419412 71.2084413,48.4144941 C71.2084413,47.5388868 70.4947742,46.8271028 69.6191669,46.8271028 L46.8326632,46.8271028 C45.9570559,46.8271028 45.2433888,47.5388868 45.2433888,48.4144942 C45.2433888,48.8438243 45.4072122,49.2336107 45.7179115,49.5443101 L54.3779504,58.5018672 C54.7187782,58.8539931 54.9070809,59.3228667 54.9070809,59.8105706 L54.9070809,70.214292 C54.9070809,71.2556056 54.065368,72.0973185 53.0240544,72.0973185 C51.9827408,72.0973185 51.1410279,71.2556056 51.1410279,70.214292 L51.1410279,60.5713133 L43.0327159,52.1843133 C42.0384779,51.1900753 41.477336,49.8437114 41.477336,48.4144943 C41.477336,45.4637918 43.8781947,43.06105 46.8326633,43.06105 L69.6210499,43.06105 C72.5736355,43.06105 74.9763772,45.4619087 74.9763772,48.4144943 C74.9763772,49.8437114 74.4190014,51.1863093 73.4059331,52.1993775 L64.5707728,60.6033247 L64.5707728,73.9313862 C64.5688898,74.9708168 63.7252939,75.8144126 62.6858633,75.8144126 Z" id="Shape"></path>
                    </g>
                </g>
            </g>
        </g>
    </g>
</svg>