
<svg width="65px" height="75px" viewBox="0 0 65 75" version="1.1" xmlns="http://www.w3.org/2000/svg" xmlns:xlink="http://www.w3.org/1999/xlink">
    <!-- Generator: Sketch 43.2 (39069) - http://www.bohemiancoding.com/sketch -->
    <desc>Created with Sketch.</desc>
    <defs></defs>
    <g id="Page-1" stroke="none" stroke-width="1" fill="none" fill-rule="evenodd">
        <g id="公告" transform="translate(-643.000000, -1772.000000)" fill-rule="nonzero" fill="#5677FC">
            <g id="buttom" transform="translate(0.000000, 1751.000000)">
                <g id="Group-Copy" transform="translate(642.000000, 21.000000)">
                    <g id="form" transform="translate(1.000000, 0.000000)">
                        <path d="M55.9718388,3.53741498 C58.9646573,3.53741498 61.3888889,5.90811972 61.3888889,8.83257172 L61.3888889,60.5723413 L61.8935576,59.345806 L50.1574465,71.2904716 L51.4583333,70.7482993 L9.02549578,70.7482993 C6.03918968,70.7482993 3.61111113,68.3667251 3.61111113,65.4421317 L3.61111113,1.76870746 L1.80555556,3.53741498 L55.9718388,3.53741498 Z M0,0 L0,1.76870746 L0,65.4421317 C0,70.3193721 4.04379197,74.2857143 9.02549578,74.2857143 L51.4583333,74.2857143 L52.2265142,74.2857143 L52.7592201,73.743542 L64.4953311,61.7988766 L65,61.2852396 L65,60.5723413 L65,8.83257172 C65,3.95310558 60.9576395,0 55.9718388,0 L1.80555556,0 L0,0 Z" id="Shape"></path>
                        <path d="M48.7558721,51.2925169 C45.7582865,51.2925169 43.3333333,53.6554237 43.3333333,56.5952814 L43.3333333,67.2108843 C43.3333333,68.1877145 44.1417081,68.9795918 45.1388889,68.9795918 C46.1360698,68.9795918 46.9444444,68.1877145 46.9444444,67.2108843 L46.9444444,56.5952814 C46.9444444,55.6132935 47.7483758,54.8299319 48.7558721,54.8299319 L56.875,54.8299319 C57.8721808,54.8299319 58.6805556,54.0380548 58.6805556,53.0612245 C58.6805556,52.0843943 57.8721808,51.2925169 56.875,51.2925169 L48.7558721,51.2925169 Z" id="Shape"></path>
                        <path d="M51.5911646,15.9183674 C52.5883453,15.9183674 53.3967201,15.12649 53.3967201,14.1496599 C53.3967201,13.1728297 52.5883453,12.3809524 51.5911646,12.3809524 L14.4444444,12.3809524 C13.4472636,12.3809524 12.6388889,13.1728297 12.6388889,14.1496599 C12.6388889,15.12649 13.4472636,15.9183674 14.4444444,15.9183674 L51.5911646,15.9183674 Z" id="Shape"></path>
                        <path d="M51.5911646,26.5306122 C52.5883453,26.5306122 53.3967201,25.738735 53.3967201,24.7619047 C53.3967201,23.7850746 52.5883453,22.9931974 51.5911646,22.9931974 L14.4444444,22.9931974 C13.4472636,22.9931974 12.6388889,23.7850746 12.6388889,24.7619047 C12.6388889,25.738735 13.4472636,26.5306122 14.4444444,26.5306122 L51.5911646,26.5306122 Z" id="Shape"></path>
                        <path d="M51.5911646,38.9115645 C52.5883453,38.9115645 53.3967201,38.1196874 53.3967201,37.1428571 C53.3967201,36.1660269 52.5883453,35.3741498 51.5911646,35.3741498 L14.4444444,35.3741498 C13.4472636,35.3741498 12.6388889,36.1660269 12.6388889,37.1428571 C12.6388889,38.1196874 13.4472636,38.9115645 14.4444444,38.9115645 L51.5911646,38.9115645 Z" id="Shape"></path>
                    </g>
                </g>
            </g>
        </g>
    </g>
</svg>