
<svg width="70px" height="70px" viewBox="0 0 70 70" version="1.1" xmlns="http://www.w3.org/2000/svg" xmlns:xlink="http://www.w3.org/1999/xlink">
    <!-- Generator: Sketch 43.2 (39069) - http://www.bohemiancoding.com/sketch -->
    <desc>Created with Sketch.</desc>
    <defs></defs>
    <g id="Page-1" stroke="none" stroke-width="1" fill="none" fill-rule="evenodd">
        <g id="sdsd" transform="translate(-389.000000, -1774.000000)" fill-rule="nonzero" fill="#A2A2A2">
            <g id="buttom" transform="translate(-1.000000, 1750.000000)">
                <g id="Group-Copy-2" transform="translate(362.000000, 24.000000)">
                    <g id="history" transform="translate(28.000000, 0.000000)">
                        <path d="M1.62121988,25.4510071 C0.744283713,25.4510071 0.0325674255,24.7392908 0.0325674255,23.8623547 L0.0325674255,4.79852487 C0.0325674255,3.9215887 0.744283713,3.20987241 1.62121988,3.20987241 C2.49815605,3.20987241 3.20987234,3.9215887 3.20987234,4.79852487 L3.20987234,23.8623547 C3.20987234,24.7392908 2.49815605,25.4510071 1.62121988,25.4510071 Z" id="Shape"></path>
                        <path d="M19.0963971,25.4510071 L1.62121981,25.4510071 C0.744283638,25.4510071 0.0325673511,24.7392908 0.0325673511,23.8623547 C0.0325673511,22.9854185 0.744283638,22.2737022 1.62121981,22.2737022 L19.0963971,22.2737022 C19.9733333,22.2737022 20.6850496,22.9854185 20.6850496,23.8623547 C20.6850496,24.7392908 19.9733333,25.4510071 19.0963971,25.4510071 Z" id="Shape"></path>
                        <path d="M34.982922,42.9261844 C34.1059858,42.9261844 33.3942696,42.2144681 33.3942696,41.3375319 L33.3942696,12.7417872 C33.3942696,11.8648511 34.1059858,11.1531348 34.982922,11.1531348 C35.8598582,11.1531348 36.5715745,11.8648511 36.5715745,12.7417872 L36.5715745,41.3375319 C36.5715745,42.2144681 35.8598582,42.9261844 34.982922,42.9261844 Z" id="Shape"></path>
                        <path d="M44.0080567,47.7255035 C43.5648227,47.7255035 43.124766,47.5412198 42.8118014,47.1821844 L28.9905248,31.3750921 C28.4138439,30.7142127 28.4805674,29.711773 29.1414468,29.1335035 C29.8039149,28.5568227 30.8063546,28.6251347 31.3830354,29.2844255 L45.204312,45.0915178 C45.7809929,45.7523972 45.7142695,46.7548369 45.05339,47.3331064 C44.7515461,47.5936454 44.3782128,47.7255035 44.0080567,47.7255035 Z" id="Shape"></path>
                        <path d="M34.982922,69.9332766 C15.7109787,69.9332766 0.0325674255,54.2548652 0.0325674255,34.982922 C0.0325674255,34.1059858 0.744283713,33.3942696 1.62121988,33.3942696 C2.49815605,33.3942696 3.20987234,34.1059858 3.20987234,34.982922 C3.20987234,52.5025816 17.4632624,66.7559717 34.982922,66.7559717 C52.5025816,66.7559717 66.7559717,52.5025816 66.7559717,34.982922 C66.7559717,17.4632624 52.5025816,3.20987234 34.982922,3.20987234 C22.0576454,3.20987234 10.5240284,10.9307234 5.59602839,22.8789787 C5.264,23.6891915 4.33781563,24.0768227 3.52124828,23.741617 C2.71103551,23.408 2.32340433,22.4786383 2.65860998,21.6668369 C8.07750352,8.52550352 20.7660709,0.0325673511 34.982922,0.0325673511 C54.2548653,0.0325673511 69.9332766,15.7109787 69.9332766,34.9829219 C69.9332766,54.2548651 54.2548652,69.9332766 34.982922,69.9332766 Z" id="Shape"></path>
                    </g>
                </g>
            </g>
        </g>
    </g>
</svg>