
<svg width="52px" height="52px" viewBox="0 0 52 52" version="1.1" xmlns="http://www.w3.org/2000/svg" xmlns:xlink="http://www.w3.org/1999/xlink">
    <!-- Generator: Sketch 43.2 (39069) - http://www.bohemiancoding.com/sketch -->
    <desc>Created with Sketch.</desc>
    <defs></defs>
    <g id="Page-1" stroke="none" stroke-width="1" fill="none" fill-rule="evenodd">
        <g id="sreach" transform="translate(-82.000000, -281.000000)" fill="#AEAEAE">
            <g id="Head-2">
                <g id="Search-2" transform="translate(24.000000, 234.000000)">
                    <path d="M94.563,79.168 L92.24,79.168 L91.435,78.367 C94.286,75.043 96.019,70.731 96.019,66.008 C96.019,55.51 87.508,47 77.009,47 C66.511,47 58,55.51 58,66.008 C58,76.507 66.511,85.017 77.009,85.017 C81.731,85.017 86.041,83.285 89.366,80.435 L90.172,81.239 L90.172,83.555 L104.79,98.151 L109.15,93.791 L94.563,79.168 L94.563,79.168 Z M77.009,79.168 C69.74,79.168 63.849,73.277 63.849,66.008 C63.849,58.74 69.74,52.848 77.009,52.848 C84.278,52.848 90.17,58.74 90.17,66.008 C90.17,73.277 84.278,79.168 77.009,79.168 L77.009,79.168 Z" id="Search-Icon-2"></path>
                </g>
            </g>
        </g>
    </g>
</svg>