
<svg width="12px" height="48px" viewBox="0 0 12 48" version="1.1" xmlns="http://www.w3.org/2000/svg" xmlns:xlink="http://www.w3.org/1999/xlink">
    <!-- Generator: Sketch 43.2 (39069) - http://www.bohemiancoding.com/sketch -->
    <desc>Created with Sketch.</desc>
    <defs></defs>
    <g id="Page-1" stroke="none" stroke-width="1" fill="none" fill-rule="evenodd">
        <g id="登录后的主界面" transform="translate(-1005.000000, -132.000000)" fill="#FFFFFF">
            <g id="Head-2">
                <g id="Header">
                    <g>
                        <path d="M1011,144 C1007.68629,144 1005,141.313708 1005,138 C1005,134.686292 1007.68629,132 1011,132 C1014.31371,132 1017,134.686292 1017,138 C1017,141.313708 1014.31371,144 1011,144 Z M1011,162 C1007.68629,162 1005,159.313708 1005,156 C1005,152.686292 1007.68629,150 1011,150 C1014.31371,150 1017,152.686292 1017,156 C1017,159.313708 1014.31371,162 1011,162 Z M1011,180 C1007.68629,180 1005,177.313708 1005,174 C1005,170.686292 1007.68629,168 1011,168 C1014.31371,168 1017,170.686292 1017,174 C1017,177.313708 1014.31371,180 1011,180 Z" id="Overflow-Icon"></path>
                    </g>
                </g>
            </g>
        </g>
    </g>
</svg>