
<svg width="15px" height="67px" viewBox="0 0 15 67" version="1.1" xmlns="http://www.w3.org/2000/svg" xmlns:xlink="http://www.w3.org/1999/xlink">
    <!-- Generator: Sketch 43.2 (39069) - http://www.bohemiancoding.com/sketch -->
    <desc>Created with Sketch.</desc>
    <defs></defs>
    <g id="Page-1" stroke="none" stroke-width="1" fill="none" fill-rule="evenodd">
        <g id="登录后的主界面" transform="translate(-977.000000, -1258.000000)" fill-rule="nonzero" fill="#C5C5C5">
            <g id="Friend-1-Copy-4" transform="translate(0.000000, 1205.000000)">
                <g id="三个点" transform="translate(977.000000, 53.000000)">
                    <path d="M0.0146296296,7.56824074 L0.0146296296,7.56824074 C0.0146296296,11.7023148 3.36592593,15.0536111 7.5,15.0536111 C11.6340741,15.0536111 14.9853704,11.7023148 14.9853704,7.56824074 L14.9853704,7.56824074 C14.9853704,3.43416667 11.6340741,0.0828703704 7.5,0.0828703704 C3.36592593,0.0828703704 0.0146296296,3.43416667 0.0146296296,7.56824074 L0.0146296296,7.56824074 Z" id="Shape"></path>
                    <path d="M0.0146296296,32.75 L0.0146296296,32.75 C0.0146296296,36.8840741 3.36592593,40.2353704 7.5,40.2353704 C11.6340741,40.2353704 14.9853704,36.8840741 14.9853704,32.75 L14.9853704,32.75 C14.9853704,28.6159259 11.6340741,25.2646296 7.5,25.2646296 C3.36592593,25.2646296 0.0146296296,28.6159259 0.0146296296,32.75 Z" id="Shape"></path>
                    <path d="M0.0146296296,59.4317593 L0.0146296296,59.4317593 C0.0146296296,63.5658333 3.36592593,66.9171296 7.5,66.9171296 C11.6340741,66.9171296 14.9853704,63.5658333 14.9853704,59.4317593 L14.9853704,59.4317593 C14.9853704,55.2976852 11.6340741,51.9463889 7.5,51.9463889 C3.36592593,51.9463889 0.0146296296,55.2976852 0.0146296296,59.4317593 Z" id="Shape"></path>
                </g>
            </g>
        </g>
    </g>
</svg>